<svg xmlns="http://www.w3.org/2000/svg" viewBox="0 0 169.97 108.5"><defs><style>.cls-1{fill:#85b34f;}</style></defs><title>Asset 2</title><g id="Layer_2" data-name="Layer 2"><g id="Layer_1-2" data-name="Layer 1"><path class="cls-1" d="M64.3,107.24c-.56-27.82,5.14-53.66,24.2-75.09C109.75,8.27,138.18,1.31,170,0c-1.15,8.29-1.84,16-3.33,23.54-4.21,21.43-12,41.31-26.82,58-13,14.71-29.54,23.31-48.86,26.88a26.16,26.16,0,0,1-3.67,0c1.53-1.77,2.69-3,3.78-4.37C101.16,91.73,111.43,79.52,121.22,67c2.85-3.66,4.52-8.28,6.32-12.62.51-1.24.08-3.68-.87-4.45s-3.42-.66-4.56.07c-4.38,2.82-9.11,5.48-12.59,9.21C95.7,74,82.3,89.16,68.74,104.21c-.92,1-1.84,2-2.81,3C65.78,107.37,65.36,107.24,64.3,107.24Z"/><path class="cls-1" d="M37,100.44a16.27,16.27,0,0,1-2.74-2C18.05,79.9,6,59.21.7,35.06A35.88,35.88,0,0,1,.15,24.61c.52-6.23,4.12-8.89,10.38-8.1,8.3,1,16.14,3.86,22.43,9.16,7.11,6,13.37,13,20,19.59,2.33,2.33,2.14,4.33-.13,7C43.85,62.79,38.11,74.81,37,88.68,36.74,92.4,37,96.16,37,100.44Z"/></g></g></svg>